<?xml version="1.0" standalone="no"?>
<!DOCTYPE svg PUBLIC "-//W3C//DTD SVG 20010904//EN"
 "http://www.w3.org/TR/2001/REC-SVG-20010904/DTD/svg10.dtd">
<svg version="1.0" xmlns="http://www.w3.org/2000/svg"
 width="360.000000pt" height="360.000000pt" viewBox="0 0 360.000000 360.000000"
 preserveAspectRatio="xMidYMid meet">

<g transform="translate(0.000000,360.000000) scale(0.100000,-0.100000)"
fill="#000000" stroke="none">
<path d="M1705 3046 c-89 -28 -161 -90 -206 -176 -24 -44 -24 -52 -29 -390
l-5 -345 -345 -5 -345 -5 -57 -28 c-74 -36 -151 -120 -173 -188 -24 -71 -17
-197 14 -257 30 -59 96 -123 156 -153 49 -24 54 -24 400 -29 l350 -5 5 -345
c5 -343 5 -345 30 -395 32 -64 93 -125 155 -156 43 -21 64 -24 150 -24 84 0
107 4 142 23 56 29 110 77 139 124 48 76 54 128 54 465 l0 313 335 0 c313 0
338 1 389 21 267 99 284 475 28 601 l-67 33 -342 3 -342 3 -3 337 c-3 322 -4
339 -25 384 -45 99 -111 159 -207 191 -58 20 -144 21 -201 3z m223 -67 c65
-32 99 -66 135 -133 21 -40 22 -54 27 -401 l5 -360 365 -5 365 -5 53 -29 c54
-31 95 -73 128 -136 28 -54 25 -171 -6 -233 -29 -58 -86 -111 -149 -141 -44
-20 -63 -21 -381 -24 -184 -1 -345 -2 -357 -2 l-22 0 -3 -358 -3 -357 -25 -48
c-111 -219 -420 -212 -524 12 -20 44 -21 65 -24 398 l-3 351 -357 4 c-354 3
-357 3 -406 27 -222 110 -228 396 -11 514 38 21 54 22 405 27 l365 5 5 350 c6
396 8 406 83 484 93 96 219 119 335 60z"/>
</g>
</svg>
